<mxfile host="65bd71144e">
    <diagram id="0SHthoLqpwAnU9IPwuw1" name="Page-1">
        <mxGraphModel dx="1176" dy="1915" grid="1" gridSize="10" guides="1" tooltips="1" connect="1" arrows="1" fold="1" page="1" pageScale="1" pageWidth="850" pageHeight="1100" math="0" shadow="0">
            <root>
                <mxCell id="0"/>
                <mxCell id="1" parent="0"/>
                <mxCell id="9" style="edgeStyle=none;html=1;exitX=0.5;exitY=0;exitDx=0;exitDy=0;exitPerimeter=0;entryX=0.5;entryY=1;entryDx=0;entryDy=0;" edge="1" parent="1" source="2" target="5">
                    <mxGeometry relative="1" as="geometry"/>
                </mxCell>
                <mxCell id="2" value="" style="fontColor=#0066CC;verticalAlign=top;verticalLabelPosition=bottom;labelPosition=center;align=center;html=1;outlineConnect=0;fillColor=#CCCCCC;strokeColor=#6881B3;gradientColor=none;gradientDirection=north;strokeWidth=2;shape=mxgraph.networks.mobile;" vertex="1" parent="1">
                    <mxGeometry x="140" y="280" width="50" height="100" as="geometry"/>
                </mxCell>
                <mxCell id="10" style="edgeStyle=none;html=1;exitX=0.5;exitY=0;exitDx=0;exitDy=0;exitPerimeter=0;" edge="1" parent="1" source="3" target="6">
                    <mxGeometry relative="1" as="geometry"/>
                </mxCell>
                <mxCell id="3" value="" style="fontColor=#0066CC;verticalAlign=top;verticalLabelPosition=bottom;labelPosition=center;align=center;html=1;outlineConnect=0;fillColor=#CCCCCC;strokeColor=#6881B3;gradientColor=none;gradientDirection=north;strokeWidth=2;shape=mxgraph.networks.mobile;" vertex="1" parent="1">
                    <mxGeometry x="570" y="470" width="50" height="100" as="geometry"/>
                </mxCell>
                <mxCell id="5" value="" style="shape=image;verticalLabelPosition=bottom;labelBackgroundColor=default;verticalAlign=top;aspect=fixed;imageAspect=0;image=data:image/png,iVBORw0KGgoAAAANSUhEUgAAAwAAAAMACAYAAACTgQCOAAAABmJLR0QA/wD/AP+gvaeTAAAQcUlEQVR4nO3bMaheZx3H8X/qa8GEgohDNSC6uNWpBR0ki5uLtZ3aTQOOQuzaDnHQpeBYyCJC0aGCbi6B1MlZnHSJDmnRpQpNLKXikDu8UEFCc+5zz/v9fODZf3C4554vPO8MAAAAAAAAAAAAAAAAAAAAAAAAAAAAAAAAAAAAAAAAAAAAAAAAAAAAAAAAAAAAAAAAAAAAAAAAAAAAAAAAAAAAAAAAAAAAAAAAAAAAAAAAAAAAAAAAAAAAAAAAAAAAAAAAAAAAAAAAAAAAAAAAAAAAAAAAAAAAAAAAAAAAAAAAAAAAAAAAAAAAAAAAAAAAAAAAAAAAAAAAAAAAAAAAAAAAAAAAAAAAAAAAAAAAAAAAAAAAAAAAAAAAAAAAAAAAAAAAAAAAAAAAAAAAAAAAAAAAAAAAAAAAAAAAAAAAAAAAAAAAAAAAAAAAAAAAAAAAAAAAAAAAAAAAAAAAAAAAAAAAwBYurR5wgp6bmRdWjwB27Z8z85PVIzbylZn5weoRwO69OjMfrh6xVwLg8bs+M7dWjwB27d7MXF09YiPXZubO6hHA7l2ZmfurR+zVE6sHAAAA50cAAABAiAAAAIAQAQAAACECAAAAQgQAAACECAAAAAgRAAAAECIAAAAgRAAAAECIAAAAgBABAAAAIQIAAABCBAAAAIQIAAAACBEAAAAQIgAAACBEAAAAQIgAAACAEAEAAAAhAgAAAEIEAAAAhAgAAAAIEQAAABAiAAAAIEQAAABAiAAAAIAQAQAAACECAAAAQgQAAACECAAAAAgRAAAAECIAAAAgRAAAAECIAAAAgBABAAAAIQIAAABCBAAAAIQIAAAACBEAAAAQIgAAACBEAAAAQIgAAACAEAEAAAAhAgAAAEIEAAAAhAgAAAAIEQAAABAiAAAAIEQAAABAiAAAAIAQAQAAACECAAAAQg6rB7Arb87Mb1aPgCNvzsyTq0fAmdsz88bqEXDk9Zn50uoRXDwCgEfxp5l5a/UIOPKL1QPgyN3xjuRieW31AC4mV4AAACBEAAAAQIgAAACAEAEAAAAhAgAAAEIEAAAAhAgAAAAIEQAAABAiAAAAIEQAAABAiAAAAIAQAQAAACECAAAAQgQAAACECAAAAAgRAAAAECIAAAAgRAAAAECIAAAAgBABAAAAIQIAAABCBAAAAIQIAAAACBEAAAAQIgAAACBEAAAAQIgAAACAEAEAAAAhAgAAAEIEAAAAhAgAAAAIEQAAABAiAAAAIEQAAABAiAAAAIAQAQAAACECAAAAQgQAAACECAAAAAgRAAAAECIAAAAgRAAAAECIAAAAgBABAAAAIQIAAABCBAAAAIQIAAAACBEAAAAQIgAAACBEAAAAQIgAAACAEAEAAAAhAgAAAEIOqwfABfH6zHxr9YiNvDgzf1k9Ati1H87M91aP2MiNmbm9egScJwEAD315Zr62esRGPrN6ALB7X5jTfUd+dvUAOG+uAAEAQIgAAACAEAEAAAAhAgAAAEIEAAAAhAgAAAAIEQAAABAiAAAAIEQAAABAiAAAAIAQAQAAACECAAAAQgQAAACECAAAAAgRAAAAECIAAAAgRAAAAECIAAAAgBABAAAAIQIAAABCBAAAAIQIAAAACBEAAAAQIgAAACBEAAAAQIgAAACAEAEAAAAhAgAAAEIEAAAAhAgAAAAIEQAAABAiAAAAIEQAAABAiAAAAIAQAQAAACECAAAAQgQAAACECAAAAAgRAAAAECIAAAAgRAAAAECIAAAAgBABAAAAIQIAAABCBAAAAIQIAAAACBEAAAAQIgAAACBEAAAAQIgAAACAEAEAAAAhAgAAAEIEAAAAhBxWD4AL4qU53b+H+6sHALv36sz8ePWIjfx79QA4b6f6wQOP6oOzA8DHfXh2gBPgChAAAIQIAAAACBEAAAAQIgAAACBEAAAAQIgAAACAEAEAAAAhAgAAAEIEAAAAhAgAAAAIEQAAABAiAAAAIEQAAABAiAAAAIAQAQAAACECAAAAQgQAAACECAAAAAgRAAAAECIAAAAgRAAAAECIAAAAgBABAAAAIQIAAABCBAAAAIQIAAAACBEAAAAQIgAAACBEAAAAQIgAAACAEAEAAAAhAgAAAEIEAAAAhAgAAAAIEQAAABAiAAAAIEQAAABAiAAAAIAQAQAAACECAAAAQgQAAACECAAAAAgRAAAAECIAAAAgRAAAAECIAAAAgBABAAAAIQIAAABCBAAAAIQIAAAACBEAAAAQIgAAACDksHoAu/LUzHxx9Qg4cmn1ADhyebwjuVh85/E/+ef5+F2fmVurRwC7dm9mrq4esZFrM3Nn9Qhg967MzP3VI/bKFSAAAAgRAAAAECIAAAAgRAAAAECIAAAAgBABAAAAIQIAAABCBAAAAIQIAAAACBEAAAAQIgAAACBEAAAAQIgAAACAEAEAAAAhAgAAAEIEAAAAhAgAAAAIEQAAABAiAAAAIEQAAABAiAAAAIAQAQAAACECAAAAQgQAAACECAAAAAgRAAAAECIAAAAgRAAAAECIAAAAgBABAAAAIQIAAABCBAAAAIQIAAAACBEAAAAQIgAAACBEAAAAQIgAAACAEAEAAAAhAgAAAEIEAAAAhAgAAAAIEQAAABAiAAAAIEQAAABAiAAAAIAQAQAAACECAAAAQgQAAACECAAAAAgRAAAAECIAAAAgRAAAAECIAAAAgJDD6gEn6J2Z+f3qEcCu/WP1gA29N96RwCf30eoBAAAAAAAAAAAAAAAAAAAAAAAAAAAAAAAAAAAAAAAAAAAAAAAAAAAAAAAAAAAAAAAAAAAAAAAAAAAAAAAAAAAAAAAAAAAAAAAAAAAAAAAAAAAAAAAAAAAAAAAAAAAAAAAAAAAAAAAAAAAAAAAAAAAAAAAAAAAAAAAAAAAAAAAAAAAAAAAAAAAAAAAAAAAAAAAAAAAAAAAAAAAAAAAAAAAAAEDJpdUDTtBXZ+abq0cAu/b+zPxq9YiNPD0z3149Ao7cnpm7q0ds5PmZ+dzqERv5+cx8tHrEXgmAx+/6zNxaPQLYtXszc3X1iI1cm5k7q0fAkRdn5terR2zkjzPzzOoRG7kyM/dXj9irJ1YPAAAAzo8AAACAEAEAAAAhAgAAAEIEAAAAhAgAAAAIEQAAABAiAAAAIEQAAABAiAAAAIAQAQAAACECAAAAQgQAAACECAAAAAgRAAAAECIAAAAgRAAAAECIAAAAgBABAAAAIQIAAABCBAAAAIQIAAAACBEAAAAQIgAAACBEAAAAQIgAAACAEAEAAAAhAgAAAEIEAAAAhAgAAAAIEQAAABAiAAAAIEQAAABAiAAAAIAQAQAAACECAAAAQgQAAACECAAAAAgRAAAAECIAAAAgRAAAAECIAAAAgBABAAAAIQIAAABCBAAAAIQIAAAACBEAAAAQIgAAACBEAAAAQIgAAACAEAEAAAAhAgAAAEIEAAAAhBxWD2BXfjczb68eAUduzsynV48Adu3lmXlu9YiNPL16ABeTAOBRvD0zP109Ao68NgIA+GSeXz0AzpsrQAAAECIAAAAgRAAAAECIAAAAgBABAAAAIQIAAABCBAAAAIQIAAAACBEAAAAQIgAAACBEAAAAQIgAAACAEAEAAAAhAgAAAEIEAAAAhAgAAAAIEQAAABAiAAAAIEQAAABAiAAAAIAQAQAAACECAAAAQgQAAACECAAAAAgRAAAAECIAAAAgRAAAAECIAAAAgBABAAAAIQIAAABCBAAAAIQIAAAACBEAAAAQIgAAACBEAAAAQIgAAACAEAEAAAAhAgAAAEIEAAAAhAgAAAAIEQAAABAiAAAAIEQAAABAiAAAAIAQAQAAACECAAAAQgQAAACECAAAAAgRAAAAECIAAAAgRAAAAECIAAAAgBABAAAAIYfVA+CCeGVmvr56xEZuzMzfVo+AgNsz88bqERt5eWa+s3oE8HgIAHjoGzPz3dUjNnJzBACch7sz89bqERt5dvUA4PFxBQgAAEIEAAAAhAgAAAAIEQAAABAiAAAAIEQAAABAiAAAAIAQAQAAACECAAAAQgQAAACECAAAAAgRAAAAECIAAAAgRAAAAECIAAAAgBABAAAAIQIAAABCBAAAAIQIAAAACBEAAAAQIgAAACBEAAAAQIgAAACAEAEAAAAhAgAAAEIEAAAAhAgAAAAIEQAAABAiAAAAIEQAAABAiAAAAIAQAQAAACECAAAAQgQAAACECAAAAAgRAAAAECIAAAAgRAAAAECIAAAAgBABAAAAIQIAAABCBAAAAIQIAAAACBEAAAAQIgAAACBEAAAAQIgAAACAEAEAAAAhAgAAAEIEAAAAhAgAAAAIEQAAABAiAAAAIOSwegBcEDdm5ubqERv58+oBwO79bGZ+uXoEHHmwesCeCQB46K9nB4CPe/fsACfAFSAAAAgRAAAAECIAAAAgRAAAAECIAAAAgBABAAAAIQIAAABCBAAAAIQIAAAACBEAAAAQIgAAACBEAAAAQIgAAACAEAEAAAAhAgAAAEIEAAAAhAgAAAAIEQAAABAiAAAAIEQAAABAiAAAAIAQAQAAACECAAAAQgQAAACECAAAAAgRAAAAECIAAAAgRAAAAECIAAAAgBABAAAAIQIAAABCBAAAAIQIAAAACBEAAAAQIgAAACBEAAAAQIgAAACAEAEAAAAhAgAAAEIEAAAAhAgAAAAIEQAAABAiAAAAIEQAAABAiAAAAIAQAQAAACECAAAAQgQAAACECAAAAAgRAAAAECIAAAAgRAAAAEDIYfUAduXZmfn+6hFw5FOrBwDA3ggAHsULZweAlpsz86PVIzby0sz8dvWIjfxhZp5ZPWIjn5+ZB6tH7JUAAAD+nydn5vLqERs55W+hy3O6z+3S6gF75jcAAAAQIgAAACBEAAAAQIgAAACAEAEAAAAhAgAAAEIEAAAAhAgAAAAIEQAAABAiAAAAIEQAAABAiAAAAIAQAQAAACECAAAAQgQAAACECAAAAAgRAAAAECIAAAAgRAAAAECIAAAAgBABAAAAIQIAAABCBAAAAIQIAAAACBEAAAAQIgAAACBEAAAAQIgAAACAEAEAAAAhAgAAAEIEAAAAhAgAAAAIEQAAABAiAAAAIEQAAABAiAAAAIAQAQAAACECAAAAQgQAAACECAAAAAgRAAAAECIAAAAgRAAAAECIAAAAgBABAAAAIQIAAABCBAAAAIQIAAAACBEAAAAQIgAAACBEAAAAQIgAAACAkMPqASfo/Zl5Z/UIYNfeXT1gQx/M6b4j31s9YEP/mtN9bg9WD9jQ3+d0n9t/Vg8AAAAAAAAAAAAAAAAAAAAAAAAAAAAAAAAAAAAAAAAAAAAAAAAAAAAAAAAAAAAAAAAAAAAAAAAAAAAAAAAAAAAAAAAAAAAAAAAAAAAAAAAAAAAAAAAAAAAAAAAAAAAAAAAAAAAAAAAAAAAAAAAAAAAAAAAAAAAAAAAAAAAAAAAAAAAAAAAAAAAAAAAAAAAAAAAAAAAAAAAAAAAAAAAAAAAAAAAAAAAAAAAAAAAAAAAAAAAAAAAAAAAAAAAAAAAAAAAAAAAAAAAAAAAAAAAAAAAAAAAAAAAAAAAAAAAAAAAAAAAAAAAAAAAA4FT8F7UwWquTVAGKAAAAAElFTkSuQmCC;" vertex="1" parent="1">
                    <mxGeometry x="135" y="170" width="60" height="60" as="geometry"/>
                </mxCell>
                <mxCell id="15" style="edgeStyle=none;html=1;exitX=0.5;exitY=0;exitDx=0;exitDy=0;" edge="1" parent="1" source="6" target="14">
                    <mxGeometry relative="1" as="geometry"/>
                </mxCell>
                <mxCell id="6" value="" style="shape=image;verticalLabelPosition=bottom;labelBackgroundColor=default;verticalAlign=top;aspect=fixed;imageAspect=0;image=data:image/png,iVBORw0KGgoAAAANSUhEUgAAAwAAAAMACAYAAACTgQCOAAAABmJLR0QA/wD/AP+gvaeTAAAQcUlEQVR4nO3bMaheZx3H8X/qa8GEgohDNSC6uNWpBR0ki5uLtZ3aTQOOQuzaDnHQpeBYyCJC0aGCbi6B1MlZnHSJDmnRpQpNLKXikDu8UEFCc+5zz/v9fODZf3C4554vPO8MAAAAAAAAAAAAAAAAAAAAAAAAAAAAAAAAAAAAAAAAAAAAAAAAAAAAAAAAAAAAAAAAAAAAAAAAAAAAAAAAAAAAAAAAAAAAAAAAAAAAAAAAAAAAAAAAAAAAAAAAAAAAAAAAAAAAAAAAAAAAAAAAAAAAAAAAAAAAAAAAAAAAAAAAAAAAAAAAAAAAAAAAAAAAAAAAAAAAAAAAAAAAAAAAAAAAAAAAAAAAAAAAAAAAAAAAAAAAAAAAAAAAAAAAAAAAAAAAAAAAAAAAAAAAAAAAAAAAAAAAAAAAAAAAAAAAAAAAAAAAAAAAAAAAAAAAAAAAAAAAAAAAAAAAAAAAAAAAAAAAwBYurR5wgp6bmRdWjwB27Z8z85PVIzbylZn5weoRwO69OjMfrh6xVwLg8bs+M7dWjwB27d7MXF09YiPXZubO6hHA7l2ZmfurR+zVE6sHAAAA50cAAABAiAAAAIAQAQAAACECAAAAQgQAAACECAAAAAgRAAAAECIAAAAgRAAAAECIAAAAgBABAAAAIQIAAABCBAAAAIQIAAAACBEAAAAQIgAAACBEAAAAQIgAAACAEAEAAAAhAgAAAEIEAAAAhAgAAAAIEQAAABAiAAAAIEQAAABAiAAAAIAQAQAAACECAAAAQgQAAACECAAAAAgRAAAAECIAAAAgRAAAAECIAAAAgBABAAAAIQIAAABCBAAAAIQIAAAACBEAAAAQIgAAACBEAAAAQIgAAACAEAEAAAAhAgAAAEIEAAAAhAgAAAAIEQAAABAiAAAAIEQAAABAiAAAAIAQAQAAACECAAAAQg6rB7Arb87Mb1aPgCNvzsyTq0fAmdsz88bqEXDk9Zn50uoRXDwCgEfxp5l5a/UIOPKL1QPgyN3xjuRieW31AC4mV4AAACBEAAAAQIgAAACAEAEAAAAhAgAAAEIEAAAAhAgAAAAIEQAAABAiAAAAIEQAAABAiAAAAIAQAQAAACECAAAAQgQAAACECAAAAAgRAAAAECIAAAAgRAAAAECIAAAAgBABAAAAIQIAAABCBAAAAIQIAAAACBEAAAAQIgAAACBEAAAAQIgAAACAEAEAAAAhAgAAAEIEAAAAhAgAAAAIEQAAABAiAAAAIEQAAABAiAAAAIAQAQAAACECAAAAQgQAAACECAAAAAgRAAAAECIAAAAgRAAAAECIAAAAgBABAAAAIQIAAABCBAAAAIQIAAAACBEAAAAQIgAAACBEAAAAQIgAAACAEAEAAAAhAgAAAEIOqwfABfH6zHxr9YiNvDgzf1k9Ati1H87M91aP2MiNmbm9egScJwEAD315Zr62esRGPrN6ALB7X5jTfUd+dvUAOG+uAAEAQIgAAACAEAEAAAAhAgAAAEIEAAAAhAgAAAAIEQAAABAiAAAAIEQAAABAiAAAAIAQAQAAACECAAAAQgQAAACECAAAAAgRAAAAECIAAAAgRAAAAECIAAAAgBABAAAAIQIAAABCBAAAAIQIAAAACBEAAAAQIgAAACBEAAAAQIgAAACAEAEAAAAhAgAAAEIEAAAAhAgAAAAIEQAAABAiAAAAIEQAAABAiAAAAIAQAQAAACECAAAAQgQAAACECAAAAAgRAAAAECIAAAAgRAAAAECIAAAAgBABAAAAIQIAAABCBAAAAIQIAAAACBEAAAAQIgAAACBEAAAAQIgAAACAEAEAAAAhAgAAAEIEAAAAhBxWD4AL4qU53b+H+6sHALv36sz8ePWIjfx79QA4b6f6wQOP6oOzA8DHfXh2gBPgChAAAIQIAAAACBEAAAAQIgAAACBEAAAAQIgAAACAEAEAAAAhAgAAAEIEAAAAhAgAAAAIEQAAABAiAAAAIEQAAABAiAAAAIAQAQAAACECAAAAQgQAAACECAAAAAgRAAAAECIAAAAgRAAAAECIAAAAgBABAAAAIQIAAABCBAAAAIQIAAAACBEAAAAQIgAAACBEAAAAQIgAAACAEAEAAAAhAgAAAEIEAAAAhAgAAAAIEQAAABAiAAAAIEQAAABAiAAAAIAQAQAAACECAAAAQgQAAACECAAAAAgRAAAAECIAAAAgRAAAAECIAAAAgBABAAAAIQIAAABCBAAAAIQIAAAACBEAAAAQIgAAACDksHoAu/LUzHxx9Qg4cmn1ADhyebwjuVh85/E/+ef5+F2fmVurRwC7dm9mrq4esZFrM3Nn9Qhg967MzP3VI/bKFSAAAAgRAAAAECIAAAAgRAAAAECIAAAAgBABAAAAIQIAAABCBAAAAIQIAAAACBEAAAAQIgAAACBEAAAAQIgAAACAEAEAAAAhAgAAAEIEAAAAhAgAAAAIEQAAABAiAAAAIEQAAABAiAAAAIAQAQAAACECAAAAQgQAAACECAAAAAgRAAAAECIAAAAgRAAAAECIAAAAgBABAAAAIQIAAABCBAAAAIQIAAAACBEAAAAQIgAAACBEAAAAQIgAAACAEAEAAAAhAgAAAEIEAAAAhAgAAAAIEQAAABAiAAAAIEQAAABAiAAAAIAQAQAAACECAAAAQgQAAACECAAAAAgRAAAAECIAAAAgRAAAAECIAAAAgJDD6gEn6J2Z+f3qEcCu/WP1gA29N96RwCf30eoBAAAAAAAAAAAAAAAAAAAAAAAAAAAAAAAAAAAAAAAAAAAAAAAAAAAAAAAAAAAAAAAAAAAAAAAAAAAAAAAAAAAAAAAAAAAAAAAAAAAAAAAAAAAAAAAAAAAAAAAAAAAAAAAAAAAAAAAAAAAAAAAAAAAAAAAAAAAAAAAAAAAAAAAAAAAAAAAAAAAAAAAAAAAAAAAAAAAAAAAAAAAAAAAAAAAAAEDJpdUDTtBXZ+abq0cAu/b+zPxq9YiNPD0z3149Ao7cnpm7q0ds5PmZ+dzqERv5+cx8tHrEXgmAx+/6zNxaPQLYtXszc3X1iI1cm5k7q0fAkRdn5terR2zkjzPzzOoRG7kyM/dXj9irJ1YPAAAAzo8AAACAEAEAAAAhAgAAAEIEAAAAhAgAAAAIEQAAABAiAAAAIEQAAABAiAAAAIAQAQAAACECAAAAQgQAAACECAAAAAgRAAAAECIAAAAgRAAAAECIAAAAgBABAAAAIQIAAABCBAAAAIQIAAAACBEAAAAQIgAAACBEAAAAQIgAAACAEAEAAAAhAgAAAEIEAAAAhAgAAAAIEQAAABAiAAAAIEQAAABAiAAAAIAQAQAAACECAAAAQgQAAACECAAAAAgRAAAAECIAAAAgRAAAAECIAAAAgBABAAAAIQIAAABCBAAAAIQIAAAACBEAAAAQIgAAACBEAAAAQIgAAACAEAEAAAAhAgAAAEIEAAAAhBxWD2BXfjczb68eAUduzsynV48Adu3lmXlu9YiNPL16ABeTAOBRvD0zP109Ao68NgIA+GSeXz0AzpsrQAAAECIAAAAgRAAAAECIAAAAgBABAAAAIQIAAABCBAAAAIQIAAAACBEAAAAQIgAAACBEAAAAQIgAAACAEAEAAAAhAgAAAEIEAAAAhAgAAAAIEQAAABAiAAAAIEQAAABAiAAAAIAQAQAAACECAAAAQgQAAACECAAAAAgRAAAAECIAAAAgRAAAAECIAAAAgBABAAAAIQIAAABCBAAAAIQIAAAACBEAAAAQIgAAACBEAAAAQIgAAACAEAEAAAAhAgAAAEIEAAAAhAgAAAAIEQAAABAiAAAAIEQAAABAiAAAAIAQAQAAACECAAAAQgQAAACECAAAAAgRAAAAECIAAAAgRAAAAECIAAAAgBABAAAAIYfVA+CCeGVmvr56xEZuzMzfVo+AgNsz88bqERt5eWa+s3oE8HgIAHjoGzPz3dUjNnJzBACch7sz89bqERt5dvUA4PFxBQgAAEIEAAAAhAgAAAAIEQAAABAiAAAAIEQAAABAiAAAAIAQAQAAACECAAAAQgQAAACECAAAAAgRAAAAECIAAAAgRAAAAECIAAAAgBABAAAAIQIAAABCBAAAAIQIAAAACBEAAAAQIgAAACBEAAAAQIgAAACAEAEAAAAhAgAAAEIEAAAAhAgAAAAIEQAAABAiAAAAIEQAAABAiAAAAIAQAQAAACECAAAAQgQAAACECAAAAAgRAAAAECIAAAAgRAAAAECIAAAAgBABAAAAIQIAAABCBAAAAIQIAAAACBEAAAAQIgAAACBEAAAAQIgAAACAEAEAAAAhAgAAAEIEAAAAhAgAAAAIEQAAABAiAAAAIOSwegBcEDdm5ubqERv58+oBwO79bGZ+uXoEHHmwesCeCQB46K9nB4CPe/fsACfAFSAAAAgRAAAAECIAAAAgRAAAAECIAAAAgBABAAAAIQIAAABCBAAAAIQIAAAACBEAAAAQIgAAACBEAAAAQIgAAACAEAEAAAAhAgAAAEIEAAAAhAgAAAAIEQAAABAiAAAAIEQAAABAiAAAAIAQAQAAACECAAAAQgQAAACECAAAAAgRAAAAECIAAAAgRAAAAECIAAAAgBABAAAAIQIAAABCBAAAAIQIAAAACBEAAAAQIgAAACBEAAAAQIgAAACAEAEAAAAhAgAAAEIEAAAAhAgAAAAIEQAAABAiAAAAIEQAAABAiAAAAIAQAQAAACECAAAAQgQAAACECAAAAAgRAAAAECIAAAAgRAAAAEDIYfUAduXZmfn+6hFw5FOrBwDA3ggAHsULZweAlpsz86PVIzby0sz8dvWIjfxhZp5ZPWIjn5+ZB6tH7JUAAAD+nydn5vLqERs55W+hy3O6z+3S6gF75jcAAAAQIgAAACBEAAAAQIgAAACAEAEAAAAhAgAAAEIEAAAAhAgAAAAIEQAAABAiAAAAIEQAAABAiAAAAIAQAQAAACECAAAAQgQAAACECAAAAAgRAAAAECIAAAAgRAAAAECIAAAAgBABAAAAIQIAAABCBAAAAIQIAAAACBEAAAAQIgAAACBEAAAAQIgAAACAEAEAAAAhAgAAAEIEAAAAhAgAAAAIEQAAABAiAAAAIEQAAABAiAAAAIAQAQAAACECAAAAQgQAAACECAAAAAgRAAAAECIAAAAgRAAAAECIAAAAgBABAAAAIQIAAABCBAAAAIQIAAAACBEAAAAQIgAAACBEAAAAQIgAAACAkMPqASfo/Zl5Z/UIYNfeXT1gQx/M6b4j31s9YEP/mtN9bg9WD9jQ3+d0n9t/Vg8AAAAAAAAAAAAAAAAAAAAAAAAAAAAAAAAAAAAAAAAAAAAAAAAAAAAAAAAAAAAAAAAAAAAAAAAAAAAAAAAAAAAAAAAAAAAAAAAAAAAAAAAAAAAAAAAAAAAAAAAAAAAAAAAAAAAAAAAAAAAAAAAAAAAAAAAAAAAAAAAAAAAAAAAAAAAAAAAAAAAAAAAAAAAAAAAAAAAAAAAAAAAAAAAAAAAAAAAAAAAAAAAAAAAAAAAAAAAAAAAAAAAAAAAAAAAAAAAAAAAAAAAAAAAAAAAAAAAAAAAAAAAAAAAAAAAAAAAAAAAAAAAAAAAA4FT8F7UwWquTVAGKAAAAAElFTkSuQmCC;" vertex="1" parent="1">
                    <mxGeometry x="565" y="360" width="60" height="60" as="geometry"/>
                </mxCell>
                <mxCell id="7" value="Scan classique" style="text;html=1;align=center;verticalAlign=middle;resizable=0;points=[];autosize=1;strokeColor=none;fillColor=none;" vertex="1" parent="1">
                    <mxGeometry x="115" y="400" width="100" height="30" as="geometry"/>
                </mxCell>
                <mxCell id="8" value="Scan avec EvilQRCode" style="text;html=1;align=center;verticalAlign=middle;resizable=0;points=[];autosize=1;strokeColor=none;fillColor=none;" vertex="1" parent="1">
                    <mxGeometry x="520" y="590" width="150" height="30" as="geometry"/>
                </mxCell>
                <mxCell id="11" value="Attacker&#39;s server (steals your cookies)" style="fontColor=#0066CC;verticalAlign=top;verticalLabelPosition=bottom;labelPosition=center;align=center;html=1;outlineConnect=0;fillColor=#CCCCCC;strokeColor=#6881B3;gradientColor=none;gradientDirection=north;strokeWidth=2;shape=mxgraph.networks.server;" vertex="1" parent="1">
                    <mxGeometry x="120" width="90" height="100" as="geometry"/>
                </mxCell>
                <mxCell id="12" style="edgeStyle=none;html=1;exitX=0.5;exitY=0;exitDx=0;exitDy=0;entryX=0.5;entryY=1;entryDx=0;entryDy=0;entryPerimeter=0;" edge="1" parent="1" source="5" target="11">
                    <mxGeometry relative="1" as="geometry"/>
                </mxCell>
                <mxCell id="13" value="Attacker&#39;s server (steals your cookies)" style="fontColor=#0066CC;verticalAlign=top;verticalLabelPosition=bottom;labelPosition=center;align=center;html=1;outlineConnect=0;fillColor=#CCCCCC;strokeColor=#6881B3;gradientColor=none;gradientDirection=north;strokeWidth=2;shape=mxgraph.networks.server;" vertex="1" parent="1">
                    <mxGeometry x="550" y="-140" width="90" height="100" as="geometry"/>
                </mxCell>
                <mxCell id="18" style="edgeStyle=none;html=1;exitX=0.5;exitY=0;exitDx=0;exitDy=0;exitPerimeter=0;" edge="1" parent="1" source="14" target="16">
                    <mxGeometry relative="1" as="geometry"/>
                </mxCell>
                <mxCell id="23" style="edgeStyle=none;html=1;exitX=0.5;exitY=0;exitDx=0;exitDy=0;exitPerimeter=0;" edge="1" parent="1" source="14" target="22">
                    <mxGeometry relative="1" as="geometry"/>
                </mxCell>
                <mxCell id="14" value="EvilQRCode Server" style="fontColor=#0066CC;verticalAlign=top;verticalLabelPosition=bottom;labelPosition=center;align=center;html=1;outlineConnect=0;fillColor=#CCCCCC;strokeColor=#6881B3;gradientColor=none;gradientDirection=north;strokeWidth=2;shape=mxgraph.networks.server;" vertex="1" parent="1">
                    <mxGeometry x="550" y="190" width="90" height="100" as="geometry"/>
                </mxCell>
                <mxCell id="16" value="Gitlab Workflow" style="shape=rect;fillColor=#EE5396;aspect=fixed;resizable=0;labelPosition=center;verticalLabelPosition=bottom;align=center;verticalAlign=top;strokeColor=none;fontSize=14;" vertex="1" parent="1">
                    <mxGeometry x="730" y="90" width="48" height="48" as="geometry"/>
                </mxCell>
                <mxCell id="17" value="" style="fillColor=#ffffff;strokeColor=none;dashed=0;outlineConnect=0;html=1;labelPosition=center;verticalLabelPosition=bottom;verticalAlign=top;part=1;movable=0;resizable=0;rotatable=0;shape=mxgraph.ibm_cloud.logo--gitlab" vertex="1" parent="16">
                    <mxGeometry width="24" height="24" relative="1" as="geometry">
                        <mxPoint x="12" y="12" as="offset"/>
                    </mxGeometry>
                </mxCell>
                <mxCell id="19" style="edgeStyle=none;html=1;exitX=0.5;exitY=0;exitDx=0;exitDy=0;" edge="1" parent="1" source="16" target="20">
                    <mxGeometry relative="1" as="geometry">
                        <mxPoint x="740" y="30" as="targetPoint"/>
                    </mxGeometry>
                </mxCell>
                <mxCell id="21" style="edgeStyle=none;html=1;entryX=1;entryY=0.5;entryDx=0;entryDy=0;entryPerimeter=0;" edge="1" parent="1" source="20" target="13">
                    <mxGeometry relative="1" as="geometry"/>
                </mxCell>
                <mxCell id="20" value="Kali linux Sandbox" style="image;sketch=0;aspect=fixed;html=1;points=[];align=center;fontSize=12;image=img/lib/mscae/Docker.svg;" vertex="1" parent="1">
                    <mxGeometry x="729" y="-60" width="50" height="41" as="geometry"/>
                </mxCell>
                <mxCell id="22" value="VirusTotal" style="fontColor=#0066CC;verticalAlign=top;verticalLabelPosition=bottom;labelPosition=center;align=center;html=1;outlineConnect=0;fillColor=#CCCCCC;strokeColor=#6881B3;gradientColor=none;gradientDirection=north;strokeWidth=2;shape=mxgraph.networks.virus;" vertex="1" parent="1">
                    <mxGeometry x="400" y="48" width="100" height="90" as="geometry"/>
                </mxCell>
                <mxCell id="24" style="edgeStyle=none;html=1;exitX=0.5;exitY=0;exitDx=0;exitDy=0;exitPerimeter=0;entryX=0;entryY=0.5;entryDx=0;entryDy=0;entryPerimeter=0;" edge="1" parent="1" source="22" target="13">
                    <mxGeometry relative="1" as="geometry"/>
                </mxCell>
            </root>
        </mxGraphModel>
    </diagram>
</mxfile>